M48
;DRILL file {KiCad 4.0.0-rc2-stable} date 5-5-2016 15:22:05
;FORMAT={-:-/ absolute / metric / decimal}
FMAT,2
METRIC,TZ
T1C0.400
T2C0.800
T3C1.016
T4C1.847
%
G90
G05
M71
T1
X23.4Y-41.
X31.Y-41.2
X52.2Y-31.4
X67.Y-31.8
T2
X21.6Y-38.
X23.6Y-38.
T3
X29.5Y-38.
X32.04Y-38.
X34.58Y-38.
X37.12Y-38.
X39.66Y-38.
X42.2Y-38.
T4
X23.25Y-20.301
X23.25Y-25.
X23.25Y-29.699
X42.Y-19.551
X42.Y-24.25
X42.Y-28.949
X59.Y-19.801
X59.Y-24.5
X59.Y-29.199
X74.Y-20.051
X74.Y-24.75
X74.Y-29.449
T0
M30
