G04 #@! TF.FileFunction,Copper,L1,Top,Signal*
%FSLAX46Y46*%
G04 Gerber Fmt 4.6, Leading zero omitted, Abs format (unit mm)*
G04 Created by KiCad (PCBNEW 4.0.0-rc2-stable) date 16-4-2016 22:36:50*
%MOMM*%
G01*
G04 APERTURE LIST*
%ADD10C,0.100000*%
%ADD11R,1.727200X2.032000*%
%ADD12O,1.727200X2.032000*%
%ADD13C,1.998980*%
%ADD14R,1.900000X2.000000*%
%ADD15C,1.900000*%
%ADD16C,5.400000*%
%ADD17C,1.350000*%
%ADD18C,0.454000*%
G04 APERTURE END LIST*
D10*
D11*
X28250000Y-35750000D03*
D12*
X30790000Y-35750000D03*
X33330000Y-35750000D03*
X35870000Y-35750000D03*
X38410000Y-35750000D03*
D13*
X36500000Y-16500000D03*
X28880000Y-16500000D03*
D14*
X43500000Y-24500000D03*
D15*
X46040000Y-24500000D03*
D14*
X28750000Y-25000000D03*
D15*
X31290000Y-25000000D03*
D14*
X16250000Y-24750000D03*
D15*
X18790000Y-24750000D03*
D16*
X23500000Y-30250000D03*
D17*
X36500000Y-16500000D02*
X39750000Y-16500000D01*
X48250000Y-31500000D02*
X38070000Y-31500000D01*
X50000000Y-29750000D02*
X48250000Y-31500000D01*
X50000000Y-20500000D02*
X50000000Y-29750000D01*
X48250000Y-18750000D02*
X50000000Y-20500000D01*
X42000000Y-18750000D02*
X48250000Y-18750000D01*
X39750000Y-16500000D02*
X42000000Y-18750000D01*
X38410000Y-35750000D02*
X38410000Y-31840000D01*
X35870000Y-31630000D02*
X35870000Y-35750000D01*
X36000000Y-31500000D02*
X35870000Y-31630000D01*
X38070000Y-31500000D02*
X36000000Y-31500000D01*
X38410000Y-31840000D02*
X38070000Y-31500000D01*
X33330000Y-35750000D02*
X33330000Y-30670000D01*
X46040000Y-28460000D02*
X46040000Y-24500000D01*
X45750000Y-28750000D02*
X46040000Y-28460000D01*
X35250000Y-28750000D02*
X45750000Y-28750000D01*
X33330000Y-30670000D02*
X35250000Y-28750000D01*
X31290000Y-25000000D02*
X31290000Y-30710000D01*
X30790000Y-31210000D02*
X30790000Y-35750000D01*
X31290000Y-30710000D02*
X30790000Y-31210000D01*
X30750000Y-35710000D02*
X30790000Y-35750000D01*
X18790000Y-24750000D02*
X18790000Y-27710000D01*
X17500000Y-35750000D02*
X28250000Y-35750000D01*
X16750000Y-35000000D02*
X17500000Y-35750000D01*
X16750000Y-29750000D02*
X16750000Y-35000000D01*
X18790000Y-27710000D02*
X16750000Y-29750000D01*
X43500000Y-24500000D02*
X37500000Y-24500000D01*
X32500000Y-19500000D02*
X28880000Y-19500000D01*
X37500000Y-24500000D02*
X32500000Y-19500000D01*
X16250000Y-24750000D02*
X16250000Y-19250000D01*
X19000000Y-16500000D02*
X28880000Y-16500000D01*
X16250000Y-19250000D02*
X19000000Y-16500000D01*
X28880000Y-16500000D02*
X28880000Y-19500000D01*
X28880000Y-19500000D02*
X28880000Y-24870000D01*
X28880000Y-24870000D02*
X28750000Y-25000000D01*
D18*
G36*
X52290000Y-16751199D02*
X52290000Y-35248802D01*
X51144401Y-36394401D01*
X50882106Y-36786953D01*
X50881500Y-36790000D01*
X40202592Y-36790000D01*
X40256466Y-36709372D01*
X40408600Y-35944541D01*
X40408600Y-35555459D01*
X40256466Y-34790628D01*
X40220000Y-34736053D01*
X40220000Y-33310000D01*
X48250000Y-33310000D01*
X48942657Y-33172222D01*
X49529863Y-32779863D01*
X51279863Y-31029863D01*
X51672222Y-30442657D01*
X51810000Y-29750000D01*
X51810000Y-20500000D01*
X51672222Y-19807343D01*
X51279863Y-19220137D01*
X49529863Y-17470137D01*
X48942657Y-17077778D01*
X48250000Y-16940000D01*
X42749727Y-16940000D01*
X41029863Y-15220137D01*
X41014692Y-15210000D01*
X50748802Y-15210000D01*
X52290000Y-16751199D01*
X52290000Y-16751199D01*
G37*
X52290000Y-16751199D02*
X52290000Y-35248802D01*
X51144401Y-36394401D01*
X50882106Y-36786953D01*
X50881500Y-36790000D01*
X40202592Y-36790000D01*
X40256466Y-36709372D01*
X40408600Y-35944541D01*
X40408600Y-35555459D01*
X40256466Y-34790628D01*
X40220000Y-34736053D01*
X40220000Y-33310000D01*
X48250000Y-33310000D01*
X48942657Y-33172222D01*
X49529863Y-32779863D01*
X51279863Y-31029863D01*
X51672222Y-30442657D01*
X51810000Y-29750000D01*
X51810000Y-20500000D01*
X51672222Y-19807343D01*
X51279863Y-19220137D01*
X49529863Y-17470137D01*
X48942657Y-17077778D01*
X48250000Y-16940000D01*
X42749727Y-16940000D01*
X41029863Y-15220137D01*
X41014692Y-15210000D01*
X50748802Y-15210000D01*
X52290000Y-16751199D01*
G36*
X14996812Y-35285614D02*
X14960000Y-35248802D01*
X14960000Y-35100547D01*
X14996812Y-35285614D01*
X14996812Y-35285614D01*
G37*
X14996812Y-35285614D02*
X14960000Y-35248802D01*
X14960000Y-35100547D01*
X14996812Y-35285614D01*
G36*
X19665667Y-29483825D02*
X19664336Y-31009482D01*
X20246950Y-32419515D01*
X21324811Y-33499259D01*
X22386233Y-33940000D01*
X18560000Y-33940000D01*
X18560000Y-30499726D01*
X19729409Y-29330318D01*
X19665667Y-29483825D01*
X19665667Y-29483825D01*
G37*
X19665667Y-29483825D02*
X19664336Y-31009482D01*
X20246950Y-32419515D01*
X21324811Y-33499259D01*
X22386233Y-33940000D01*
X18560000Y-33940000D01*
X18560000Y-30499726D01*
X19729409Y-29330318D01*
X19665667Y-29483825D01*
G36*
X27070000Y-23120997D02*
X26993094Y-23170485D01*
X26733939Y-23549771D01*
X26642765Y-24000000D01*
X26642765Y-26000000D01*
X26721907Y-26420606D01*
X26970485Y-26806906D01*
X27349771Y-27066061D01*
X27800000Y-27157235D01*
X29480000Y-27157235D01*
X29480000Y-29975240D01*
X29117778Y-30517343D01*
X28980000Y-31210000D01*
X28980000Y-33576765D01*
X27386400Y-33576765D01*
X26965794Y-33655907D01*
X26579494Y-33904485D01*
X26555228Y-33940000D01*
X24612016Y-33940000D01*
X25669515Y-33503050D01*
X26749259Y-32425189D01*
X27334333Y-31016175D01*
X27335664Y-29490518D01*
X26753050Y-28080485D01*
X25675189Y-27000741D01*
X24266175Y-26415667D01*
X22740518Y-26414336D01*
X21330485Y-26996950D01*
X20595989Y-27730165D01*
X20600000Y-27710000D01*
X20600000Y-25827954D01*
X20874638Y-25166552D01*
X20875362Y-24337087D01*
X20558608Y-23570485D01*
X19972600Y-22983453D01*
X19206552Y-22665362D01*
X18377087Y-22664638D01*
X18060000Y-22795656D01*
X18060000Y-19999726D01*
X19749726Y-18310000D01*
X27070000Y-18310000D01*
X27070000Y-23120997D01*
X27070000Y-23120997D01*
G37*
X27070000Y-23120997D02*
X26993094Y-23170485D01*
X26733939Y-23549771D01*
X26642765Y-24000000D01*
X26642765Y-26000000D01*
X26721907Y-26420606D01*
X26970485Y-26806906D01*
X27349771Y-27066061D01*
X27800000Y-27157235D01*
X29480000Y-27157235D01*
X29480000Y-29975240D01*
X29117778Y-30517343D01*
X28980000Y-31210000D01*
X28980000Y-33576765D01*
X27386400Y-33576765D01*
X26965794Y-33655907D01*
X26579494Y-33904485D01*
X26555228Y-33940000D01*
X24612016Y-33940000D01*
X25669515Y-33503050D01*
X26749259Y-32425189D01*
X27334333Y-31016175D01*
X27335664Y-29490518D01*
X26753050Y-28080485D01*
X25675189Y-27000741D01*
X24266175Y-26415667D01*
X22740518Y-26414336D01*
X21330485Y-26996950D01*
X20595989Y-27730165D01*
X20600000Y-27710000D01*
X20600000Y-25827954D01*
X20874638Y-25166552D01*
X20875362Y-24337087D01*
X20558608Y-23570485D01*
X19972600Y-22983453D01*
X19206552Y-22665362D01*
X18377087Y-22664638D01*
X18060000Y-22795656D01*
X18060000Y-19999726D01*
X19749726Y-18310000D01*
X27070000Y-18310000D01*
X27070000Y-23120997D01*
G36*
X34691523Y-15289330D02*
X34365881Y-16073561D01*
X34365140Y-16922714D01*
X34689412Y-17707512D01*
X35289330Y-18308477D01*
X36073561Y-18634119D01*
X36922714Y-18634860D01*
X37707512Y-18310588D01*
X37708101Y-18310000D01*
X39000274Y-18310000D01*
X40720137Y-20029864D01*
X41307343Y-20422222D01*
X42000000Y-20560000D01*
X47500274Y-20560000D01*
X48190000Y-21249726D01*
X48190000Y-29000274D01*
X47500274Y-29690000D01*
X47353180Y-29690000D01*
X47712222Y-29152657D01*
X47850000Y-28460000D01*
X47850000Y-25577954D01*
X48124638Y-24916552D01*
X48125362Y-24087087D01*
X47808608Y-23320485D01*
X47222600Y-22733453D01*
X46456552Y-22415362D01*
X45627087Y-22414638D01*
X45156536Y-22609066D01*
X44900229Y-22433939D01*
X44450000Y-22342765D01*
X42550000Y-22342765D01*
X42129394Y-22421907D01*
X41743094Y-22670485D01*
X41729760Y-22690000D01*
X38249726Y-22690000D01*
X33779863Y-18220137D01*
X33192657Y-17827778D01*
X32500000Y-17690000D01*
X30697060Y-17690000D01*
X31014119Y-16926439D01*
X31014860Y-16077286D01*
X30690588Y-15292488D01*
X30608244Y-15210000D01*
X34770991Y-15210000D01*
X34691523Y-15289330D01*
X34691523Y-15289330D01*
G37*
X34691523Y-15289330D02*
X34365881Y-16073561D01*
X34365140Y-16922714D01*
X34689412Y-17707512D01*
X35289330Y-18308477D01*
X36073561Y-18634119D01*
X36922714Y-18634860D01*
X37707512Y-18310588D01*
X37708101Y-18310000D01*
X39000274Y-18310000D01*
X40720137Y-20029864D01*
X41307343Y-20422222D01*
X42000000Y-20560000D01*
X47500274Y-20560000D01*
X48190000Y-21249726D01*
X48190000Y-29000274D01*
X47500274Y-29690000D01*
X47353180Y-29690000D01*
X47712222Y-29152657D01*
X47850000Y-28460000D01*
X47850000Y-25577954D01*
X48124638Y-24916552D01*
X48125362Y-24087087D01*
X47808608Y-23320485D01*
X47222600Y-22733453D01*
X46456552Y-22415362D01*
X45627087Y-22414638D01*
X45156536Y-22609066D01*
X44900229Y-22433939D01*
X44450000Y-22342765D01*
X42550000Y-22342765D01*
X42129394Y-22421907D01*
X41743094Y-22670485D01*
X41729760Y-22690000D01*
X38249726Y-22690000D01*
X33779863Y-18220137D01*
X33192657Y-17827778D01*
X32500000Y-17690000D01*
X30697060Y-17690000D01*
X31014119Y-16926439D01*
X31014860Y-16077286D01*
X30690588Y-15292488D01*
X30608244Y-15210000D01*
X34770991Y-15210000D01*
X34691523Y-15289330D01*
G36*
X15300000Y-26907235D02*
X16980000Y-26907235D01*
X16980000Y-26960273D01*
X15470137Y-28470137D01*
X15077778Y-29057343D01*
X14960000Y-29649453D01*
X14960000Y-26838383D01*
X15300000Y-26907235D01*
X15300000Y-26907235D01*
G37*
X15300000Y-26907235D02*
X16980000Y-26907235D01*
X16980000Y-26960273D01*
X15470137Y-28470137D01*
X15077778Y-29057343D01*
X14960000Y-29649453D01*
X14960000Y-26838383D01*
X15300000Y-26907235D01*
G36*
X36220137Y-25779863D02*
X36807343Y-26172222D01*
X37500000Y-26310000D01*
X41725013Y-26310000D01*
X42099771Y-26566061D01*
X42550000Y-26657235D01*
X44230000Y-26657235D01*
X44230000Y-26940000D01*
X35250000Y-26940000D01*
X34557343Y-27077778D01*
X33970137Y-27470137D01*
X33100000Y-28340274D01*
X33100000Y-26077954D01*
X33374638Y-25416552D01*
X33375362Y-24587087D01*
X33058608Y-23820485D01*
X32472600Y-23233453D01*
X31706552Y-22915362D01*
X30877087Y-22914638D01*
X30690000Y-22991941D01*
X30690000Y-21310000D01*
X31750274Y-21310000D01*
X36220137Y-25779863D01*
X36220137Y-25779863D01*
G37*
X36220137Y-25779863D02*
X36807343Y-26172222D01*
X37500000Y-26310000D01*
X41725013Y-26310000D01*
X42099771Y-26566061D01*
X42550000Y-26657235D01*
X44230000Y-26657235D01*
X44230000Y-26940000D01*
X35250000Y-26940000D01*
X34557343Y-27077778D01*
X33970137Y-27470137D01*
X33100000Y-28340274D01*
X33100000Y-26077954D01*
X33374638Y-25416552D01*
X33375362Y-24587087D01*
X33058608Y-23820485D01*
X32472600Y-23233453D01*
X31706552Y-22915362D01*
X30877087Y-22914638D01*
X30690000Y-22991941D01*
X30690000Y-21310000D01*
X31750274Y-21310000D01*
X36220137Y-25779863D01*
G36*
X17720137Y-15220137D02*
X14970137Y-17970137D01*
X14960000Y-17985308D01*
X14960000Y-16751198D01*
X16501199Y-15210000D01*
X17735308Y-15210000D01*
X17720137Y-15220137D01*
X17720137Y-15220137D01*
G37*
X17720137Y-15220137D02*
X14970137Y-17970137D01*
X14960000Y-17985308D01*
X14960000Y-16751198D01*
X16501199Y-15210000D01*
X17735308Y-15210000D01*
X17720137Y-15220137D01*
M02*
