G04 #@! TF.FileFunction,Legend,Top*
%FSLAX46Y46*%
G04 Gerber Fmt 4.6, Leading zero omitted, Abs format (unit mm)*
G04 Created by KiCad (PCBNEW 4.0.0-rc2-stable) date 16-4-2016 22:36:50*
%MOMM*%
G01*
G04 APERTURE LIST*
%ADD10C,0.100000*%
%ADD11C,0.150000*%
G04 APERTURE END LIST*
D10*
D11*
X28250000Y-37300000D02*
X26700000Y-37300000D01*
X26700000Y-37300000D02*
X26700000Y-34200000D01*
X26700000Y-34200000D02*
X28250000Y-34200000D01*
X29520000Y-34480000D02*
X39680000Y-34480000D01*
X39680000Y-34480000D02*
X39680000Y-37020000D01*
X39680000Y-37020000D02*
X29520000Y-37020000D01*
X29520000Y-34480000D02*
X29520000Y-37020000D01*
X35230000Y-17770000D02*
X30150000Y-17770000D01*
X30150000Y-17770000D02*
X30150000Y-15230000D01*
X30150000Y-15230000D02*
X35230000Y-15230000D01*
X35230000Y-15230000D02*
X35230000Y-17770000D01*
X42285112Y-26024904D02*
G75*
G03X42270000Y-23000000I2484888J1524904D01*
G01*
X42270000Y-26000000D02*
X42270000Y-23000000D01*
X47287936Y-24500000D02*
G75*
G03X47287936Y-24500000I-2517936J0D01*
G01*
X27535112Y-26524904D02*
G75*
G03X27520000Y-23500000I2484888J1524904D01*
G01*
X27520000Y-26500000D02*
X27520000Y-23500000D01*
X32537936Y-25000000D02*
G75*
G03X32537936Y-25000000I-2517936J0D01*
G01*
X15035112Y-26274904D02*
G75*
G03X15020000Y-23250000I2484888J1524904D01*
G01*
X15020000Y-26250000D02*
X15020000Y-23250000D01*
X20037936Y-24750000D02*
G75*
G03X20037936Y-24750000I-2517936J0D01*
G01*
X22602381Y-36083333D02*
X23316667Y-36083333D01*
X23459524Y-36130953D01*
X23554762Y-36226191D01*
X23602381Y-36369048D01*
X23602381Y-36464286D01*
X23602381Y-35083333D02*
X23602381Y-35654762D01*
X23602381Y-35369048D02*
X22602381Y-35369048D01*
X22745238Y-35464286D01*
X22840476Y-35559524D01*
X22888095Y-35654762D01*
X30155366Y-20357263D02*
X30107747Y-20404882D01*
X29964890Y-20452501D01*
X29869652Y-20452501D01*
X29726794Y-20404882D01*
X29631556Y-20309644D01*
X29583937Y-20214406D01*
X29536318Y-20023930D01*
X29536318Y-19881072D01*
X29583937Y-19690596D01*
X29631556Y-19595358D01*
X29726794Y-19500120D01*
X29869652Y-19452501D01*
X29964890Y-19452501D01*
X30107747Y-19500120D01*
X30155366Y-19547739D01*
X30583937Y-20452501D02*
X30583937Y-19452501D01*
X30964890Y-19452501D01*
X31060128Y-19500120D01*
X31107747Y-19547739D01*
X31155366Y-19642977D01*
X31155366Y-19785834D01*
X31107747Y-19881072D01*
X31060128Y-19928691D01*
X30964890Y-19976310D01*
X30583937Y-19976310D01*
X31679175Y-19928691D02*
X31869652Y-19928691D01*
X31536318Y-19500120D02*
X31631556Y-19452501D01*
X31869652Y-19452501D01*
X31964890Y-19500120D01*
X32012509Y-19547739D01*
X32060128Y-19642977D01*
X32060128Y-19738215D01*
X32012509Y-19833453D01*
X31964890Y-19881072D01*
X31869652Y-19928691D01*
X32012509Y-19976310D01*
X32060128Y-20023930D01*
X32107747Y-20119168D01*
X32107747Y-20262025D01*
X32060128Y-20357263D01*
X32012509Y-20404882D01*
X31917271Y-20452501D01*
X31631556Y-20452501D01*
X31536318Y-20404882D01*
X32726794Y-19452501D02*
X32917271Y-19452501D01*
X33012509Y-19500120D01*
X33107747Y-19595358D01*
X33155366Y-19785834D01*
X33155366Y-20119168D01*
X33107747Y-20309644D01*
X33012509Y-20404882D01*
X32917271Y-20452501D01*
X32726794Y-20452501D01*
X32631556Y-20404882D01*
X32536318Y-20309644D01*
X32488699Y-20119168D01*
X32488699Y-19785834D01*
X32536318Y-19595358D01*
X32631556Y-19500120D01*
X32726794Y-19452501D01*
X33583937Y-20071549D02*
X34345842Y-20071549D01*
X35345842Y-20452501D02*
X34774413Y-20452501D01*
X35060127Y-20452501D02*
X35060127Y-19452501D01*
X34964889Y-19595358D01*
X34869651Y-19690596D01*
X34774413Y-19738215D01*
X44285905Y-29016381D02*
X44285905Y-28016381D01*
X44524000Y-28016381D01*
X44666858Y-28064000D01*
X44762096Y-28159238D01*
X44809715Y-28254476D01*
X44857334Y-28444952D01*
X44857334Y-28587810D01*
X44809715Y-28778286D01*
X44762096Y-28873524D01*
X44666858Y-28968762D01*
X44524000Y-29016381D01*
X44285905Y-29016381D01*
X45809715Y-29016381D02*
X45238286Y-29016381D01*
X45524000Y-29016381D02*
X45524000Y-28016381D01*
X45428762Y-28159238D01*
X45333524Y-28254476D01*
X45238286Y-28302095D01*
X41333095Y-26857381D02*
X41333095Y-25857381D01*
X41904524Y-26857381D02*
X41475952Y-26285952D01*
X41904524Y-25857381D02*
X41333095Y-26428810D01*
X29535905Y-29516381D02*
X29535905Y-28516381D01*
X29774000Y-28516381D01*
X29916858Y-28564000D01*
X30012096Y-28659238D01*
X30059715Y-28754476D01*
X30107334Y-28944952D01*
X30107334Y-29087810D01*
X30059715Y-29278286D01*
X30012096Y-29373524D01*
X29916858Y-29468762D01*
X29774000Y-29516381D01*
X29535905Y-29516381D01*
X30488286Y-28611619D02*
X30535905Y-28564000D01*
X30631143Y-28516381D01*
X30869239Y-28516381D01*
X30964477Y-28564000D01*
X31012096Y-28611619D01*
X31059715Y-28706857D01*
X31059715Y-28802095D01*
X31012096Y-28944952D01*
X30440667Y-29516381D01*
X31059715Y-29516381D01*
X26583095Y-27357381D02*
X26583095Y-26357381D01*
X27154524Y-27357381D02*
X26725952Y-26785952D01*
X27154524Y-26357381D02*
X26583095Y-26928810D01*
X17035905Y-29266381D02*
X17035905Y-28266381D01*
X17274000Y-28266381D01*
X17416858Y-28314000D01*
X17512096Y-28409238D01*
X17559715Y-28504476D01*
X17607334Y-28694952D01*
X17607334Y-28837810D01*
X17559715Y-29028286D01*
X17512096Y-29123524D01*
X17416858Y-29218762D01*
X17274000Y-29266381D01*
X17035905Y-29266381D01*
X17940667Y-28266381D02*
X18559715Y-28266381D01*
X18226381Y-28647333D01*
X18369239Y-28647333D01*
X18464477Y-28694952D01*
X18512096Y-28742571D01*
X18559715Y-28837810D01*
X18559715Y-29075905D01*
X18512096Y-29171143D01*
X18464477Y-29218762D01*
X18369239Y-29266381D01*
X18083524Y-29266381D01*
X17988286Y-29218762D01*
X17940667Y-29171143D01*
X14083095Y-27107381D02*
X14083095Y-26107381D01*
X14654524Y-27107381D02*
X14225952Y-26535952D01*
X14654524Y-26107381D02*
X14083095Y-26678810D01*
X22166667Y-27002381D02*
X21833333Y-26526190D01*
X21595238Y-27002381D02*
X21595238Y-26002381D01*
X21976191Y-26002381D01*
X22071429Y-26050000D01*
X22119048Y-26097619D01*
X22166667Y-26192857D01*
X22166667Y-26335714D01*
X22119048Y-26430952D01*
X22071429Y-26478571D01*
X21976191Y-26526190D01*
X21595238Y-26526190D01*
X22595238Y-26478571D02*
X22928572Y-26478571D01*
X23071429Y-27002381D02*
X22595238Y-27002381D01*
X22595238Y-26002381D01*
X23071429Y-26002381D01*
X23833334Y-26478571D02*
X23500000Y-26478571D01*
X23500000Y-27002381D02*
X23500000Y-26002381D01*
X23976191Y-26002381D01*
X24500000Y-26002381D02*
X24500000Y-26240476D01*
X24261905Y-26145238D02*
X24500000Y-26240476D01*
X24738096Y-26145238D01*
X24357143Y-26430952D02*
X24500000Y-26240476D01*
X24642858Y-26430952D01*
X25261905Y-26002381D02*
X25261905Y-26240476D01*
X25023810Y-26145238D02*
X25261905Y-26240476D01*
X25500001Y-26145238D01*
X25119048Y-26430952D02*
X25261905Y-26240476D01*
X25404763Y-26430952D01*
M02*
