G04 #@! TF.FileFunction,Copper,L1,Top,Signal*
%FSLAX46Y46*%
G04 Gerber Fmt 4.6, Leading zero omitted, Abs format (unit mm)*
G04 Created by KiCad (PCBNEW 4.0.0-rc2-stable) date 2-4-2016 11:02:50*
%MOMM*%
G01*
G04 APERTURE LIST*
%ADD10C,0.100000*%
%ADD11C,3.500120*%
%ADD12R,1.727200X2.032000*%
%ADD13O,1.727200X2.032000*%
%ADD14C,2.997200*%
%ADD15C,1.200000*%
%ADD16C,0.450000*%
%ADD17C,0.454000*%
G04 APERTURE END LIST*
D10*
D11*
X57250000Y-38500000D03*
D12*
X34750000Y-36000000D03*
D13*
X37290000Y-36000000D03*
X39830000Y-36000000D03*
X42370000Y-36000000D03*
D14*
X54250000Y-28449000D03*
X54250000Y-23750000D03*
X54250000Y-19051000D03*
X20000000Y-28199000D03*
X20000000Y-23500000D03*
X20000000Y-18801000D03*
X37500000Y-28449000D03*
X37500000Y-23750000D03*
X37500000Y-19051000D03*
D11*
X16750000Y-38750000D03*
X29250000Y-17250000D03*
D15*
X34750000Y-36000000D02*
X28500000Y-36000000D01*
X26250000Y-23500000D02*
X20000000Y-23500000D01*
X26500000Y-23750000D02*
X26250000Y-23500000D01*
X26500000Y-34000000D02*
X26500000Y-23750000D01*
X28500000Y-36000000D02*
X26500000Y-34000000D01*
X37500000Y-23750000D02*
X29750000Y-23750000D01*
X37290000Y-33290000D02*
X37290000Y-36000000D01*
X37000000Y-33000000D02*
X37290000Y-33290000D01*
X30750000Y-33000000D02*
X37000000Y-33000000D01*
X28500000Y-30750000D02*
X30750000Y-33000000D01*
X28500000Y-25000000D02*
X28500000Y-30750000D01*
X29750000Y-23750000D02*
X28500000Y-25000000D01*
X54250000Y-23750000D02*
X50000000Y-23750000D01*
X39830000Y-33670000D02*
X39830000Y-36000000D01*
X44000000Y-29500000D02*
X39830000Y-33670000D01*
X44250000Y-29500000D02*
X44000000Y-29500000D01*
X50000000Y-23750000D02*
X44250000Y-29500000D01*
X54250000Y-28449000D02*
X59699000Y-28449000D01*
X41301000Y-28449000D02*
X37500000Y-28449000D01*
X43750000Y-26000000D02*
X41301000Y-28449000D01*
X43750000Y-23500000D02*
X43750000Y-26000000D01*
X51750000Y-15500000D02*
X43750000Y-23500000D01*
X58250000Y-15500000D02*
X51750000Y-15500000D01*
X59250000Y-16500000D02*
X58250000Y-15500000D01*
X59250000Y-28000000D02*
X59250000Y-16500000D01*
X59699000Y-28449000D02*
X59250000Y-28000000D01*
X20000000Y-28199000D02*
X20000000Y-33250000D01*
X42370000Y-39370000D02*
X42370000Y-36000000D01*
X42500000Y-39500000D02*
X42370000Y-39370000D01*
X26250000Y-39500000D02*
X42500000Y-39500000D01*
X20000000Y-33250000D02*
X26250000Y-39500000D01*
X54250000Y-28449000D02*
X54250000Y-31000000D01*
X49250000Y-36000000D02*
X42370000Y-36000000D01*
X54250000Y-31000000D02*
X49250000Y-36000000D01*
D16*
X42370000Y-36000000D02*
X42620000Y-35750000D01*
D17*
G36*
X60565000Y-39716264D02*
X59466264Y-40815000D01*
X57741382Y-40815000D01*
X57836324Y-40775771D01*
X58516985Y-40515855D01*
X58627554Y-40441975D01*
X58648822Y-40391908D01*
X59143406Y-39898185D01*
X59191975Y-39877554D01*
X59214487Y-39827228D01*
X59221754Y-39819974D01*
X59273797Y-39694640D01*
X59571318Y-39029532D01*
X59572858Y-38974425D01*
X59576796Y-38964940D01*
X59576914Y-38829205D01*
X59597261Y-38100893D01*
X59577595Y-38049392D01*
X59577604Y-38039122D01*
X59525771Y-37913676D01*
X59265855Y-37233015D01*
X59191975Y-37122446D01*
X59141908Y-37101178D01*
X58648185Y-36606594D01*
X58627554Y-36558025D01*
X58577228Y-36535513D01*
X58569974Y-36528246D01*
X58444640Y-36476203D01*
X57779532Y-36178682D01*
X57724425Y-36177142D01*
X57714940Y-36173204D01*
X57579205Y-36173086D01*
X56850893Y-36152739D01*
X56799392Y-36172405D01*
X56789122Y-36172396D01*
X56663676Y-36224229D01*
X55983015Y-36484145D01*
X55872446Y-36558025D01*
X55851178Y-36608092D01*
X55356594Y-37101815D01*
X55308025Y-37122446D01*
X55285513Y-37172772D01*
X55278246Y-37180026D01*
X55226203Y-37305360D01*
X54928682Y-37970468D01*
X54927142Y-38025575D01*
X54923204Y-38035060D01*
X54923086Y-38170795D01*
X54902739Y-38899107D01*
X54922405Y-38950608D01*
X54922396Y-38960878D01*
X54974229Y-39086324D01*
X55234145Y-39766985D01*
X55308025Y-39877554D01*
X55358092Y-39898822D01*
X55851815Y-40393406D01*
X55872446Y-40441975D01*
X55922772Y-40464487D01*
X55930026Y-40471754D01*
X56055360Y-40523797D01*
X56706344Y-40815000D01*
X42560332Y-40815000D01*
X43007821Y-40725988D01*
X43438331Y-40438331D01*
X43725988Y-40007821D01*
X43827001Y-39500000D01*
X43725988Y-38992179D01*
X43697000Y-38948795D01*
X43697000Y-37327000D01*
X49250000Y-37327000D01*
X49757821Y-37225988D01*
X50188331Y-36938331D01*
X55188331Y-31938331D01*
X55475988Y-31507821D01*
X55577001Y-31000000D01*
X55577000Y-30999995D01*
X55577000Y-30269045D01*
X56070906Y-29776000D01*
X59698995Y-29776000D01*
X59699000Y-29776001D01*
X60206821Y-29674988D01*
X60565000Y-29435661D01*
X60565000Y-39716264D01*
X60565000Y-39716264D01*
G37*
X60565000Y-39716264D02*
X59466264Y-40815000D01*
X57741382Y-40815000D01*
X57836324Y-40775771D01*
X58516985Y-40515855D01*
X58627554Y-40441975D01*
X58648822Y-40391908D01*
X59143406Y-39898185D01*
X59191975Y-39877554D01*
X59214487Y-39827228D01*
X59221754Y-39819974D01*
X59273797Y-39694640D01*
X59571318Y-39029532D01*
X59572858Y-38974425D01*
X59576796Y-38964940D01*
X59576914Y-38829205D01*
X59597261Y-38100893D01*
X59577595Y-38049392D01*
X59577604Y-38039122D01*
X59525771Y-37913676D01*
X59265855Y-37233015D01*
X59191975Y-37122446D01*
X59141908Y-37101178D01*
X58648185Y-36606594D01*
X58627554Y-36558025D01*
X58577228Y-36535513D01*
X58569974Y-36528246D01*
X58444640Y-36476203D01*
X57779532Y-36178682D01*
X57724425Y-36177142D01*
X57714940Y-36173204D01*
X57579205Y-36173086D01*
X56850893Y-36152739D01*
X56799392Y-36172405D01*
X56789122Y-36172396D01*
X56663676Y-36224229D01*
X55983015Y-36484145D01*
X55872446Y-36558025D01*
X55851178Y-36608092D01*
X55356594Y-37101815D01*
X55308025Y-37122446D01*
X55285513Y-37172772D01*
X55278246Y-37180026D01*
X55226203Y-37305360D01*
X54928682Y-37970468D01*
X54927142Y-38025575D01*
X54923204Y-38035060D01*
X54923086Y-38170795D01*
X54902739Y-38899107D01*
X54922405Y-38950608D01*
X54922396Y-38960878D01*
X54974229Y-39086324D01*
X55234145Y-39766985D01*
X55308025Y-39877554D01*
X55358092Y-39898822D01*
X55851815Y-40393406D01*
X55872446Y-40441975D01*
X55922772Y-40464487D01*
X55930026Y-40471754D01*
X56055360Y-40523797D01*
X56706344Y-40815000D01*
X42560332Y-40815000D01*
X43007821Y-40725988D01*
X43438331Y-40438331D01*
X43725988Y-40007821D01*
X43827001Y-39500000D01*
X43725988Y-38992179D01*
X43697000Y-38948795D01*
X43697000Y-37327000D01*
X49250000Y-37327000D01*
X49757821Y-37225988D01*
X50188331Y-36938331D01*
X55188331Y-31938331D01*
X55475988Y-31507821D01*
X55577001Y-31000000D01*
X55577000Y-30999995D01*
X55577000Y-30269045D01*
X56070906Y-29776000D01*
X59698995Y-29776000D01*
X59699000Y-29776001D01*
X60206821Y-29674988D01*
X60565000Y-29435661D01*
X60565000Y-39716264D01*
G36*
X14474229Y-39336324D02*
X14734145Y-40016985D01*
X14808025Y-40127554D01*
X14858092Y-40148822D01*
X15351815Y-40643406D01*
X15372446Y-40691975D01*
X15422772Y-40714487D01*
X15430026Y-40721754D01*
X15555360Y-40773797D01*
X15647469Y-40815000D01*
X15283736Y-40815000D01*
X14435000Y-39966264D01*
X14435000Y-39241382D01*
X14474229Y-39336324D01*
X14474229Y-39336324D01*
G37*
X14474229Y-39336324D02*
X14734145Y-40016985D01*
X14808025Y-40127554D01*
X14858092Y-40148822D01*
X15351815Y-40643406D01*
X15372446Y-40691975D01*
X15422772Y-40714487D01*
X15430026Y-40721754D01*
X15555360Y-40773797D01*
X15647469Y-40815000D01*
X15283736Y-40815000D01*
X14435000Y-39966264D01*
X14435000Y-39241382D01*
X14474229Y-39336324D01*
G36*
X42811669Y-22561669D02*
X42524012Y-22992179D01*
X42423000Y-23500000D01*
X42423000Y-25450338D01*
X40751338Y-27122000D01*
X39320045Y-27122000D01*
X38762347Y-26563328D01*
X37944641Y-26223787D01*
X37059243Y-26223015D01*
X36240946Y-26561128D01*
X35614328Y-27186653D01*
X35274787Y-28004359D01*
X35274015Y-28889757D01*
X35612128Y-29708054D01*
X36237653Y-30334672D01*
X37055359Y-30674213D01*
X37940757Y-30674985D01*
X38759054Y-30336872D01*
X39320906Y-29776000D01*
X41301000Y-29776000D01*
X41808821Y-29674988D01*
X42229316Y-29394023D01*
X38891669Y-32731669D01*
X38604012Y-33162179D01*
X38597793Y-33193442D01*
X38515988Y-32782179D01*
X38228331Y-32351669D01*
X37938331Y-32061669D01*
X37507821Y-31774012D01*
X37000000Y-31673000D01*
X31299661Y-31673000D01*
X29827000Y-30200338D01*
X29827000Y-25549662D01*
X30299662Y-25077000D01*
X35679955Y-25077000D01*
X36237653Y-25635672D01*
X37055359Y-25975213D01*
X37940757Y-25975985D01*
X38759054Y-25637872D01*
X39385672Y-25012347D01*
X39725213Y-24194641D01*
X39725985Y-23309243D01*
X39387872Y-22490946D01*
X38762347Y-21864328D01*
X37944641Y-21524787D01*
X37059243Y-21524015D01*
X36240946Y-21862128D01*
X35679094Y-22423000D01*
X29750000Y-22423000D01*
X29242179Y-22524012D01*
X28811669Y-22811669D01*
X27827000Y-23796338D01*
X27827000Y-23750000D01*
X27725988Y-23242179D01*
X27438331Y-22811669D01*
X27438328Y-22811667D01*
X27188331Y-22561669D01*
X26757821Y-22274012D01*
X26250000Y-22173000D01*
X21820045Y-22173000D01*
X21262347Y-21614328D01*
X20444641Y-21274787D01*
X19559243Y-21274015D01*
X18740946Y-21612128D01*
X18114328Y-22237653D01*
X17774787Y-23055359D01*
X17774015Y-23940757D01*
X18112128Y-24759054D01*
X18737653Y-25385672D01*
X19555359Y-25725213D01*
X20440757Y-25725985D01*
X21259054Y-25387872D01*
X21820906Y-24827000D01*
X25173000Y-24827000D01*
X25173000Y-34000000D01*
X25274012Y-34507821D01*
X25561669Y-34938331D01*
X27561669Y-36938331D01*
X27992179Y-37225988D01*
X28500000Y-37327000D01*
X33222613Y-37327000D01*
X33355072Y-37532846D01*
X33598015Y-37698843D01*
X33886400Y-37757242D01*
X35613600Y-37757242D01*
X35883010Y-37706549D01*
X36130446Y-37547328D01*
X36252099Y-37369284D01*
X36681304Y-37656070D01*
X37290000Y-37777147D01*
X37898696Y-37656070D01*
X38414724Y-37311271D01*
X38560000Y-37093850D01*
X38705276Y-37311271D01*
X39221304Y-37656070D01*
X39830000Y-37777147D01*
X40438696Y-37656070D01*
X40954724Y-37311271D01*
X41043000Y-37179157D01*
X41043000Y-38173000D01*
X26799662Y-38173000D01*
X21327000Y-32700338D01*
X21327000Y-30019045D01*
X21885672Y-29461347D01*
X22225213Y-28643641D01*
X22225985Y-27758243D01*
X21887872Y-26939946D01*
X21262347Y-26313328D01*
X20444641Y-25973787D01*
X19559243Y-25973015D01*
X18740946Y-26311128D01*
X18114328Y-26936653D01*
X17774787Y-27754359D01*
X17774015Y-28639757D01*
X18112128Y-29458054D01*
X18673000Y-30019906D01*
X18673000Y-33250000D01*
X18774012Y-33757821D01*
X19061669Y-34188331D01*
X25311669Y-40438331D01*
X25742179Y-40725988D01*
X26189668Y-40815000D01*
X17888285Y-40815000D01*
X18016985Y-40765855D01*
X18127554Y-40691975D01*
X18148822Y-40641908D01*
X18643406Y-40148185D01*
X18691975Y-40127554D01*
X18714487Y-40077228D01*
X18721754Y-40069974D01*
X18773797Y-39944640D01*
X19071318Y-39279532D01*
X19072858Y-39224425D01*
X19076796Y-39214940D01*
X19076914Y-39079205D01*
X19097261Y-38350893D01*
X19077595Y-38299392D01*
X19077604Y-38289122D01*
X19025771Y-38163676D01*
X18765855Y-37483015D01*
X18691975Y-37372446D01*
X18641908Y-37351178D01*
X18148185Y-36856594D01*
X18127554Y-36808025D01*
X18077228Y-36785513D01*
X18069974Y-36778246D01*
X17944640Y-36726203D01*
X17279532Y-36428682D01*
X17224425Y-36427142D01*
X17214940Y-36423204D01*
X17079205Y-36423086D01*
X16350893Y-36402739D01*
X16299392Y-36422405D01*
X16289122Y-36422396D01*
X16163676Y-36474229D01*
X15483015Y-36734145D01*
X15372446Y-36808025D01*
X15351178Y-36858092D01*
X14856594Y-37351815D01*
X14808025Y-37372446D01*
X14785513Y-37422772D01*
X14778246Y-37430026D01*
X14726203Y-37555360D01*
X14435000Y-38206344D01*
X14435000Y-19241757D01*
X17774015Y-19241757D01*
X18112128Y-20060054D01*
X18737653Y-20686672D01*
X19555359Y-21026213D01*
X20440757Y-21026985D01*
X21259054Y-20688872D01*
X21885672Y-20063347D01*
X22225213Y-19245641D01*
X22225985Y-18360243D01*
X21932150Y-17649107D01*
X26902739Y-17649107D01*
X26922405Y-17700608D01*
X26922396Y-17710878D01*
X26974229Y-17836324D01*
X27234145Y-18516985D01*
X27308025Y-18627554D01*
X27358092Y-18648822D01*
X27851815Y-19143406D01*
X27872446Y-19191975D01*
X27922772Y-19214487D01*
X27930026Y-19221754D01*
X28055360Y-19273797D01*
X28720468Y-19571318D01*
X28775575Y-19572858D01*
X28785060Y-19576796D01*
X28920795Y-19576914D01*
X29649107Y-19597261D01*
X29700608Y-19577595D01*
X29710878Y-19577604D01*
X29836324Y-19525771D01*
X29925398Y-19491757D01*
X35274015Y-19491757D01*
X35612128Y-20310054D01*
X36237653Y-20936672D01*
X37055359Y-21276213D01*
X37940757Y-21276985D01*
X38759054Y-20938872D01*
X39385672Y-20313347D01*
X39725213Y-19495641D01*
X39725985Y-18610243D01*
X39387872Y-17791946D01*
X38762347Y-17165328D01*
X37944641Y-16825787D01*
X37059243Y-16825015D01*
X36240946Y-17163128D01*
X35614328Y-17788653D01*
X35274787Y-18606359D01*
X35274015Y-19491757D01*
X29925398Y-19491757D01*
X30516985Y-19265855D01*
X30627554Y-19191975D01*
X30648822Y-19141908D01*
X31143406Y-18648185D01*
X31191975Y-18627554D01*
X31214487Y-18577228D01*
X31221754Y-18569974D01*
X31273797Y-18444640D01*
X31571318Y-17779532D01*
X31572858Y-17724425D01*
X31576796Y-17714940D01*
X31576914Y-17579205D01*
X31597261Y-16850893D01*
X31577595Y-16799392D01*
X31577604Y-16789122D01*
X31525771Y-16663676D01*
X31265855Y-15983015D01*
X31191975Y-15872446D01*
X31141908Y-15851178D01*
X30648185Y-15356594D01*
X30627554Y-15308025D01*
X30577228Y-15285513D01*
X30569974Y-15278246D01*
X30444640Y-15226203D01*
X29779532Y-14928682D01*
X29724425Y-14927142D01*
X29714940Y-14923204D01*
X29579205Y-14923086D01*
X28850893Y-14902739D01*
X28799392Y-14922405D01*
X28789122Y-14922396D01*
X28663676Y-14974229D01*
X27983015Y-15234145D01*
X27872446Y-15308025D01*
X27851178Y-15358092D01*
X27356594Y-15851815D01*
X27308025Y-15872446D01*
X27285513Y-15922772D01*
X27278246Y-15930026D01*
X27226203Y-16055360D01*
X26928682Y-16720468D01*
X26927142Y-16775575D01*
X26923204Y-16785060D01*
X26923086Y-16920795D01*
X26902739Y-17649107D01*
X21932150Y-17649107D01*
X21887872Y-17541946D01*
X21262347Y-16915328D01*
X20444641Y-16575787D01*
X19559243Y-16575015D01*
X18740946Y-16913128D01*
X18114328Y-17538653D01*
X17774787Y-18356359D01*
X17774015Y-19241757D01*
X14435000Y-19241757D01*
X14435000Y-15533736D01*
X15283736Y-14685000D01*
X50688339Y-14685000D01*
X42811669Y-22561669D01*
X42811669Y-22561669D01*
G37*
X42811669Y-22561669D02*
X42524012Y-22992179D01*
X42423000Y-23500000D01*
X42423000Y-25450338D01*
X40751338Y-27122000D01*
X39320045Y-27122000D01*
X38762347Y-26563328D01*
X37944641Y-26223787D01*
X37059243Y-26223015D01*
X36240946Y-26561128D01*
X35614328Y-27186653D01*
X35274787Y-28004359D01*
X35274015Y-28889757D01*
X35612128Y-29708054D01*
X36237653Y-30334672D01*
X37055359Y-30674213D01*
X37940757Y-30674985D01*
X38759054Y-30336872D01*
X39320906Y-29776000D01*
X41301000Y-29776000D01*
X41808821Y-29674988D01*
X42229316Y-29394023D01*
X38891669Y-32731669D01*
X38604012Y-33162179D01*
X38597793Y-33193442D01*
X38515988Y-32782179D01*
X38228331Y-32351669D01*
X37938331Y-32061669D01*
X37507821Y-31774012D01*
X37000000Y-31673000D01*
X31299661Y-31673000D01*
X29827000Y-30200338D01*
X29827000Y-25549662D01*
X30299662Y-25077000D01*
X35679955Y-25077000D01*
X36237653Y-25635672D01*
X37055359Y-25975213D01*
X37940757Y-25975985D01*
X38759054Y-25637872D01*
X39385672Y-25012347D01*
X39725213Y-24194641D01*
X39725985Y-23309243D01*
X39387872Y-22490946D01*
X38762347Y-21864328D01*
X37944641Y-21524787D01*
X37059243Y-21524015D01*
X36240946Y-21862128D01*
X35679094Y-22423000D01*
X29750000Y-22423000D01*
X29242179Y-22524012D01*
X28811669Y-22811669D01*
X27827000Y-23796338D01*
X27827000Y-23750000D01*
X27725988Y-23242179D01*
X27438331Y-22811669D01*
X27438328Y-22811667D01*
X27188331Y-22561669D01*
X26757821Y-22274012D01*
X26250000Y-22173000D01*
X21820045Y-22173000D01*
X21262347Y-21614328D01*
X20444641Y-21274787D01*
X19559243Y-21274015D01*
X18740946Y-21612128D01*
X18114328Y-22237653D01*
X17774787Y-23055359D01*
X17774015Y-23940757D01*
X18112128Y-24759054D01*
X18737653Y-25385672D01*
X19555359Y-25725213D01*
X20440757Y-25725985D01*
X21259054Y-25387872D01*
X21820906Y-24827000D01*
X25173000Y-24827000D01*
X25173000Y-34000000D01*
X25274012Y-34507821D01*
X25561669Y-34938331D01*
X27561669Y-36938331D01*
X27992179Y-37225988D01*
X28500000Y-37327000D01*
X33222613Y-37327000D01*
X33355072Y-37532846D01*
X33598015Y-37698843D01*
X33886400Y-37757242D01*
X35613600Y-37757242D01*
X35883010Y-37706549D01*
X36130446Y-37547328D01*
X36252099Y-37369284D01*
X36681304Y-37656070D01*
X37290000Y-37777147D01*
X37898696Y-37656070D01*
X38414724Y-37311271D01*
X38560000Y-37093850D01*
X38705276Y-37311271D01*
X39221304Y-37656070D01*
X39830000Y-37777147D01*
X40438696Y-37656070D01*
X40954724Y-37311271D01*
X41043000Y-37179157D01*
X41043000Y-38173000D01*
X26799662Y-38173000D01*
X21327000Y-32700338D01*
X21327000Y-30019045D01*
X21885672Y-29461347D01*
X22225213Y-28643641D01*
X22225985Y-27758243D01*
X21887872Y-26939946D01*
X21262347Y-26313328D01*
X20444641Y-25973787D01*
X19559243Y-25973015D01*
X18740946Y-26311128D01*
X18114328Y-26936653D01*
X17774787Y-27754359D01*
X17774015Y-28639757D01*
X18112128Y-29458054D01*
X18673000Y-30019906D01*
X18673000Y-33250000D01*
X18774012Y-33757821D01*
X19061669Y-34188331D01*
X25311669Y-40438331D01*
X25742179Y-40725988D01*
X26189668Y-40815000D01*
X17888285Y-40815000D01*
X18016985Y-40765855D01*
X18127554Y-40691975D01*
X18148822Y-40641908D01*
X18643406Y-40148185D01*
X18691975Y-40127554D01*
X18714487Y-40077228D01*
X18721754Y-40069974D01*
X18773797Y-39944640D01*
X19071318Y-39279532D01*
X19072858Y-39224425D01*
X19076796Y-39214940D01*
X19076914Y-39079205D01*
X19097261Y-38350893D01*
X19077595Y-38299392D01*
X19077604Y-38289122D01*
X19025771Y-38163676D01*
X18765855Y-37483015D01*
X18691975Y-37372446D01*
X18641908Y-37351178D01*
X18148185Y-36856594D01*
X18127554Y-36808025D01*
X18077228Y-36785513D01*
X18069974Y-36778246D01*
X17944640Y-36726203D01*
X17279532Y-36428682D01*
X17224425Y-36427142D01*
X17214940Y-36423204D01*
X17079205Y-36423086D01*
X16350893Y-36402739D01*
X16299392Y-36422405D01*
X16289122Y-36422396D01*
X16163676Y-36474229D01*
X15483015Y-36734145D01*
X15372446Y-36808025D01*
X15351178Y-36858092D01*
X14856594Y-37351815D01*
X14808025Y-37372446D01*
X14785513Y-37422772D01*
X14778246Y-37430026D01*
X14726203Y-37555360D01*
X14435000Y-38206344D01*
X14435000Y-19241757D01*
X17774015Y-19241757D01*
X18112128Y-20060054D01*
X18737653Y-20686672D01*
X19555359Y-21026213D01*
X20440757Y-21026985D01*
X21259054Y-20688872D01*
X21885672Y-20063347D01*
X22225213Y-19245641D01*
X22225985Y-18360243D01*
X21932150Y-17649107D01*
X26902739Y-17649107D01*
X26922405Y-17700608D01*
X26922396Y-17710878D01*
X26974229Y-17836324D01*
X27234145Y-18516985D01*
X27308025Y-18627554D01*
X27358092Y-18648822D01*
X27851815Y-19143406D01*
X27872446Y-19191975D01*
X27922772Y-19214487D01*
X27930026Y-19221754D01*
X28055360Y-19273797D01*
X28720468Y-19571318D01*
X28775575Y-19572858D01*
X28785060Y-19576796D01*
X28920795Y-19576914D01*
X29649107Y-19597261D01*
X29700608Y-19577595D01*
X29710878Y-19577604D01*
X29836324Y-19525771D01*
X29925398Y-19491757D01*
X35274015Y-19491757D01*
X35612128Y-20310054D01*
X36237653Y-20936672D01*
X37055359Y-21276213D01*
X37940757Y-21276985D01*
X38759054Y-20938872D01*
X39385672Y-20313347D01*
X39725213Y-19495641D01*
X39725985Y-18610243D01*
X39387872Y-17791946D01*
X38762347Y-17165328D01*
X37944641Y-16825787D01*
X37059243Y-16825015D01*
X36240946Y-17163128D01*
X35614328Y-17788653D01*
X35274787Y-18606359D01*
X35274015Y-19491757D01*
X29925398Y-19491757D01*
X30516985Y-19265855D01*
X30627554Y-19191975D01*
X30648822Y-19141908D01*
X31143406Y-18648185D01*
X31191975Y-18627554D01*
X31214487Y-18577228D01*
X31221754Y-18569974D01*
X31273797Y-18444640D01*
X31571318Y-17779532D01*
X31572858Y-17724425D01*
X31576796Y-17714940D01*
X31576914Y-17579205D01*
X31597261Y-16850893D01*
X31577595Y-16799392D01*
X31577604Y-16789122D01*
X31525771Y-16663676D01*
X31265855Y-15983015D01*
X31191975Y-15872446D01*
X31141908Y-15851178D01*
X30648185Y-15356594D01*
X30627554Y-15308025D01*
X30577228Y-15285513D01*
X30569974Y-15278246D01*
X30444640Y-15226203D01*
X29779532Y-14928682D01*
X29724425Y-14927142D01*
X29714940Y-14923204D01*
X29579205Y-14923086D01*
X28850893Y-14902739D01*
X28799392Y-14922405D01*
X28789122Y-14922396D01*
X28663676Y-14974229D01*
X27983015Y-15234145D01*
X27872446Y-15308025D01*
X27851178Y-15358092D01*
X27356594Y-15851815D01*
X27308025Y-15872446D01*
X27285513Y-15922772D01*
X27278246Y-15930026D01*
X27226203Y-16055360D01*
X26928682Y-16720468D01*
X26927142Y-16775575D01*
X26923204Y-16785060D01*
X26923086Y-16920795D01*
X26902739Y-17649107D01*
X21932150Y-17649107D01*
X21887872Y-17541946D01*
X21262347Y-16915328D01*
X20444641Y-16575787D01*
X19559243Y-16575015D01*
X18740946Y-16913128D01*
X18114328Y-17538653D01*
X17774787Y-18356359D01*
X17774015Y-19241757D01*
X14435000Y-19241757D01*
X14435000Y-15533736D01*
X15283736Y-14685000D01*
X50688339Y-14685000D01*
X42811669Y-22561669D01*
G36*
X52990946Y-17163128D02*
X52364328Y-17788653D01*
X52024787Y-18606359D01*
X52024015Y-19491757D01*
X52362128Y-20310054D01*
X52987653Y-20936672D01*
X53805359Y-21276213D01*
X54690757Y-21276985D01*
X55509054Y-20938872D01*
X56135672Y-20313347D01*
X56475213Y-19495641D01*
X56475985Y-18610243D01*
X56137872Y-17791946D01*
X55512347Y-17165328D01*
X54697562Y-16827000D01*
X57700338Y-16827000D01*
X57923000Y-17049661D01*
X57923000Y-27122000D01*
X56070045Y-27122000D01*
X55512347Y-26563328D01*
X54694641Y-26223787D01*
X53809243Y-26223015D01*
X52990946Y-26561128D01*
X52364328Y-27186653D01*
X52024787Y-28004359D01*
X52024015Y-28889757D01*
X52362128Y-29708054D01*
X52923000Y-30269906D01*
X52923000Y-30450338D01*
X48700338Y-34673000D01*
X43471184Y-34673000D01*
X42978696Y-34343930D01*
X42370000Y-34222853D01*
X41761304Y-34343930D01*
X41245276Y-34688729D01*
X41157000Y-34820843D01*
X41157000Y-34219662D01*
X44624068Y-30752593D01*
X44757821Y-30725988D01*
X45188331Y-30438331D01*
X50549662Y-25077000D01*
X52429955Y-25077000D01*
X52987653Y-25635672D01*
X53805359Y-25975213D01*
X54690757Y-25975985D01*
X55509054Y-25637872D01*
X56135672Y-25012347D01*
X56475213Y-24194641D01*
X56475985Y-23309243D01*
X56137872Y-22490946D01*
X55512347Y-21864328D01*
X54694641Y-21524787D01*
X53809243Y-21524015D01*
X52990946Y-21862128D01*
X52429094Y-22423000D01*
X50000000Y-22423000D01*
X49492179Y-22524012D01*
X49061669Y-22811669D01*
X43625931Y-28247407D01*
X43576433Y-28257253D01*
X43492179Y-28274012D01*
X43071686Y-28554976D01*
X44688331Y-26938331D01*
X44975988Y-26507821D01*
X45077000Y-26000000D01*
X45077000Y-24049662D01*
X52299661Y-16827000D01*
X53804439Y-16827000D01*
X52990946Y-17163128D01*
X52990946Y-17163128D01*
G37*
X52990946Y-17163128D02*
X52364328Y-17788653D01*
X52024787Y-18606359D01*
X52024015Y-19491757D01*
X52362128Y-20310054D01*
X52987653Y-20936672D01*
X53805359Y-21276213D01*
X54690757Y-21276985D01*
X55509054Y-20938872D01*
X56135672Y-20313347D01*
X56475213Y-19495641D01*
X56475985Y-18610243D01*
X56137872Y-17791946D01*
X55512347Y-17165328D01*
X54697562Y-16827000D01*
X57700338Y-16827000D01*
X57923000Y-17049661D01*
X57923000Y-27122000D01*
X56070045Y-27122000D01*
X55512347Y-26563328D01*
X54694641Y-26223787D01*
X53809243Y-26223015D01*
X52990946Y-26561128D01*
X52364328Y-27186653D01*
X52024787Y-28004359D01*
X52024015Y-28889757D01*
X52362128Y-29708054D01*
X52923000Y-30269906D01*
X52923000Y-30450338D01*
X48700338Y-34673000D01*
X43471184Y-34673000D01*
X42978696Y-34343930D01*
X42370000Y-34222853D01*
X41761304Y-34343930D01*
X41245276Y-34688729D01*
X41157000Y-34820843D01*
X41157000Y-34219662D01*
X44624068Y-30752593D01*
X44757821Y-30725988D01*
X45188331Y-30438331D01*
X50549662Y-25077000D01*
X52429955Y-25077000D01*
X52987653Y-25635672D01*
X53805359Y-25975213D01*
X54690757Y-25975985D01*
X55509054Y-25637872D01*
X56135672Y-25012347D01*
X56475213Y-24194641D01*
X56475985Y-23309243D01*
X56137872Y-22490946D01*
X55512347Y-21864328D01*
X54694641Y-21524787D01*
X53809243Y-21524015D01*
X52990946Y-21862128D01*
X52429094Y-22423000D01*
X50000000Y-22423000D01*
X49492179Y-22524012D01*
X49061669Y-22811669D01*
X43625931Y-28247407D01*
X43576433Y-28257253D01*
X43492179Y-28274012D01*
X43071686Y-28554976D01*
X44688331Y-26938331D01*
X44975988Y-26507821D01*
X45077000Y-26000000D01*
X45077000Y-24049662D01*
X52299661Y-16827000D01*
X53804439Y-16827000D01*
X52990946Y-17163128D01*
G36*
X29811667Y-33938328D02*
X29811669Y-33938331D01*
X30242179Y-34225988D01*
X30326433Y-34242747D01*
X30750000Y-34327001D01*
X30750005Y-34327000D01*
X33564853Y-34327000D01*
X33369554Y-34452672D01*
X33219009Y-34673000D01*
X29049662Y-34673000D01*
X27827000Y-33450338D01*
X27827000Y-31953662D01*
X29811667Y-33938328D01*
X29811667Y-33938328D01*
G37*
X29811667Y-33938328D02*
X29811669Y-33938331D01*
X30242179Y-34225988D01*
X30326433Y-34242747D01*
X30750000Y-34327001D01*
X30750005Y-34327000D01*
X33564853Y-34327000D01*
X33369554Y-34452672D01*
X33219009Y-34673000D01*
X29049662Y-34673000D01*
X27827000Y-33450338D01*
X27827000Y-31953662D01*
X29811667Y-33938328D01*
G36*
X35963000Y-34342847D02*
X35939807Y-34327000D01*
X35963000Y-34327000D01*
X35963000Y-34342847D01*
X35963000Y-34342847D01*
G37*
X35963000Y-34342847D02*
X35939807Y-34327000D01*
X35963000Y-34327000D01*
X35963000Y-34342847D01*
G36*
X60565000Y-15783736D02*
X60565000Y-16439668D01*
X60475988Y-15992180D01*
X60475988Y-15992179D01*
X60188331Y-15561669D01*
X60188328Y-15561667D01*
X59311662Y-14685000D01*
X59466264Y-14685000D01*
X60565000Y-15783736D01*
X60565000Y-15783736D01*
G37*
X60565000Y-15783736D02*
X60565000Y-16439668D01*
X60475988Y-15992180D01*
X60475988Y-15992179D01*
X60188331Y-15561669D01*
X60188328Y-15561667D01*
X59311662Y-14685000D01*
X59466264Y-14685000D01*
X60565000Y-15783736D01*
M02*
